<svg width="1592" height="1055" viewBox="0 0 1592 1055" fill="none" xmlns="http://www.w3.org/2000/svg">
<g filter="url(#filter0_d)">
<rect width="1584" height="1047" transform="translate(4)" fill="black"/>
<rect x="4" width="1584" height="89" fill="#18A0FB"/>
<rect x="4" y="979" width="1584" height="68" fill="#18A0FB"/>
<g filter="url(#filter1_i)">
<rect x="226" y="265" width="1140" height="436" fill="#DFDFDF"/>
</g>
<rect x="223.5" y="262.5" width="1145" height="441" stroke="black" stroke-width="5"/>
<path d="M572.939 562.046C556.489 591.286 531.056 614.488 500.383 628.236C469.71 641.983 435.42 645.549 402.561 638.409C369.702 631.269 340.011 613.8 317.861 588.574C295.712 563.349 282.273 531.7 279.525 498.288C276.777 464.877 284.864 431.469 302.596 402.984C320.328 374.499 346.768 352.442 378.021 340.062C409.275 327.682 443.69 325.633 476.2 334.217C508.709 342.801 537.594 361.563 558.602 387.742L436 485.5L572.939 562.046Z" fill="#27A0C7"/>
<ellipse cx="796" cy="483" rx="90" ry="88" fill="#A09EFA"/>
<path d="M737.512 483.592C734.617 482.76 732.508 481.74 731.184 480.533C729.871 479.314 729.215 477.814 729.215 476.033C729.215 474.018 730.018 472.354 731.623 471.041C733.24 469.717 735.338 469.055 737.916 469.055C739.674 469.055 741.238 469.395 742.609 470.074C743.992 470.754 745.059 471.691 745.809 472.887C746.57 474.082 746.951 475.389 746.951 476.807H743.559C743.559 475.26 743.066 474.047 742.082 473.168C741.098 472.277 739.709 471.832 737.916 471.832C736.252 471.832 734.951 472.201 734.014 472.939C733.088 473.666 732.625 474.68 732.625 475.98C732.625 477.023 733.064 477.908 733.943 478.635C734.834 479.35 736.34 480.006 738.461 480.604C740.594 481.201 742.258 481.863 743.453 482.59C744.66 483.305 745.551 484.143 746.125 485.104C746.711 486.064 747.004 487.195 747.004 488.496C747.004 490.57 746.195 492.234 744.578 493.488C742.961 494.73 740.799 495.352 738.092 495.352C736.334 495.352 734.693 495.018 733.17 494.35C731.646 493.67 730.469 492.744 729.637 491.572C728.816 490.4 728.406 489.07 728.406 487.582H731.799C731.799 489.129 732.367 490.354 733.504 491.256C734.652 492.146 736.182 492.592 738.092 492.592C739.873 492.592 741.238 492.229 742.188 491.502C743.137 490.775 743.611 489.785 743.611 488.531C743.611 487.277 743.172 486.311 742.293 485.631C741.414 484.939 739.82 484.26 737.512 483.592ZM754.967 495H751.592V469.406H754.967V495ZM780.051 491.643C779.184 492.885 777.971 493.816 776.412 494.438C774.865 495.047 773.061 495.352 770.998 495.352C768.912 495.352 767.061 494.865 765.443 493.893C763.826 492.908 762.572 491.514 761.682 489.709C760.803 487.904 760.352 485.812 760.328 483.434V481.201C760.328 477.346 761.225 474.357 763.018 472.236C764.822 470.115 767.354 469.055 770.611 469.055C773.283 469.055 775.434 469.74 777.062 471.111C778.691 472.471 779.688 474.404 780.051 476.912H776.676C776.043 473.525 774.027 471.832 770.629 471.832C768.367 471.832 766.65 472.629 765.479 474.223C764.318 475.805 763.732 478.102 763.721 481.113V483.205C763.721 486.076 764.377 488.361 765.689 490.061C767.002 491.748 768.777 492.592 771.016 492.592C772.281 492.592 773.389 492.451 774.338 492.17C775.287 491.889 776.072 491.414 776.693 490.746V484.998H770.77V482.256H780.051V491.643ZM805.363 495H801.971L789.086 475.277V495H785.693V469.406H789.086L802.006 489.217V469.406H805.363V495ZM838.305 469.406V486.809C838.293 489.223 837.531 491.197 836.02 492.732C834.52 494.268 832.48 495.129 829.902 495.316L829.006 495.352C826.205 495.352 823.973 494.596 822.309 493.084C820.645 491.572 819.801 489.492 819.777 486.844V469.406H823.117V486.738C823.117 488.59 823.627 490.031 824.646 491.062C825.666 492.082 827.119 492.592 829.006 492.592C830.916 492.592 832.375 492.082 833.383 491.062C834.402 490.043 834.912 488.607 834.912 486.756V469.406H838.305ZM847.006 484.98V495H843.631V469.406H853.07C855.871 469.406 858.062 470.121 859.645 471.551C861.238 472.98 862.035 474.873 862.035 477.229C862.035 479.713 861.256 481.629 859.697 482.977C858.15 484.312 855.93 484.98 853.035 484.98H847.006ZM847.006 482.221H853.07C854.875 482.221 856.258 481.799 857.219 480.955C858.18 480.1 858.66 478.869 858.66 477.264C858.66 475.74 858.18 474.521 857.219 473.607C856.258 472.693 854.939 472.219 853.264 472.184H847.006V482.221Z" fill="black"/>
<circle cx="1050" cy="481" r="90" fill="#A09EFA"/>
<path d="M1005.36 490.24H1017.49V493H1001.97V467.406H1005.36V490.24ZM1039.87 481.029C1039.87 483.537 1039.45 485.729 1038.6 487.604C1037.76 489.467 1036.56 490.891 1035.02 491.875C1033.47 492.859 1031.67 493.352 1029.6 493.352C1027.59 493.352 1025.8 492.859 1024.24 491.875C1022.68 490.879 1021.47 489.467 1020.6 487.639C1019.75 485.799 1019.31 483.672 1019.29 481.258V479.412C1019.29 476.951 1019.71 474.777 1020.57 472.891C1021.42 471.004 1022.63 469.562 1024.19 468.566C1025.76 467.559 1027.55 467.055 1029.57 467.055C1031.62 467.055 1033.42 467.553 1034.98 468.549C1036.55 469.533 1037.76 470.969 1038.6 472.855C1039.45 474.73 1039.87 476.916 1039.87 479.412V481.029ZM1036.51 479.377C1036.51 476.342 1035.9 474.016 1034.68 472.398C1033.46 470.77 1031.76 469.955 1029.57 469.955C1027.44 469.955 1025.75 470.77 1024.52 472.398C1023.3 474.016 1022.68 476.266 1022.64 479.148V481.029C1022.64 483.971 1023.26 486.285 1024.49 487.973C1025.73 489.648 1027.44 490.486 1029.6 490.486C1031.78 490.486 1033.47 489.695 1034.67 488.113C1035.86 486.52 1036.48 484.24 1036.51 481.275V479.377ZM1063.83 489.643C1062.96 490.885 1061.75 491.816 1060.19 492.438C1058.64 493.047 1056.84 493.352 1054.78 493.352C1052.69 493.352 1050.84 492.865 1049.22 491.893C1047.6 490.908 1046.35 489.514 1045.46 487.709C1044.58 485.904 1044.13 483.812 1044.11 481.434V479.201C1044.11 475.346 1045 472.357 1046.79 470.236C1048.6 468.115 1051.13 467.055 1054.39 467.055C1057.06 467.055 1059.21 467.74 1060.84 469.111C1062.47 470.471 1063.46 472.404 1063.83 474.912H1060.45C1059.82 471.525 1057.8 469.832 1054.41 469.832C1052.14 469.832 1050.43 470.629 1049.26 472.223C1048.1 473.805 1047.51 476.102 1047.5 479.113V481.205C1047.5 484.076 1048.15 486.361 1049.47 488.061C1050.78 489.748 1052.55 490.592 1054.79 490.592C1056.06 490.592 1057.17 490.451 1058.12 490.17C1059.06 489.889 1059.85 489.414 1060.47 488.746V482.998H1054.55V480.256H1063.83V489.643ZM1073.09 493H1069.72V467.406H1073.09V493ZM1098.95 493H1095.56L1082.67 473.277V493H1079.28V467.406H1082.67L1095.59 487.217V467.406H1098.95V493Z" fill="black"/>
<ellipse cx="1489" cy="36.5" rx="60" ry="36.5" fill="white"/>
<line x1="1448" y1="18.5" x2="1526" y2="18.5" stroke="black" stroke-width="5"/>
<line x1="1447.9" y1="37.5018" x2="1525.9" y2="34.5018" stroke="black" stroke-width="5"/>
<line x1="1447.94" y1="56.5008" x2="1527.94" y2="54.5008" stroke="black" stroke-width="5"/>
</g>
<defs>
<filter id="filter0_d" x="0" y="0" width="1592" height="1055" filterUnits="userSpaceOnUse" color-interpolation-filters="sRGB">
<feFlood flood-opacity="0" result="BackgroundImageFix"/>
<feColorMatrix in="SourceAlpha" type="matrix" values="0 0 0 0 0 0 0 0 0 0 0 0 0 0 0 0 0 0 127 0"/>
<feOffset dy="4"/>
<feGaussianBlur stdDeviation="2"/>
<feColorMatrix type="matrix" values="0 0 0 0 0 0 0 0 0 0 0 0 0 0 0 0 0 0 0.25 0"/>
<feBlend mode="normal" in2="BackgroundImageFix" result="effect1_dropShadow"/>
<feBlend mode="normal" in="SourceGraphic" in2="effect1_dropShadow" result="shape"/>
</filter>
<filter id="filter1_i" x="221" y="260" width="1150" height="450" filterUnits="userSpaceOnUse" color-interpolation-filters="sRGB">
<feFlood flood-opacity="0" result="BackgroundImageFix"/>
<feBlend mode="normal" in="SourceGraphic" in2="BackgroundImageFix" result="shape"/>
<feColorMatrix in="SourceAlpha" type="matrix" values="0 0 0 0 0 0 0 0 0 0 0 0 0 0 0 0 0 0 127 0" result="hardAlpha"/>
<feOffset dy="4"/>
<feGaussianBlur stdDeviation="2"/>
<feComposite in2="hardAlpha" operator="arithmetic" k2="-1" k3="1"/>
<feColorMatrix type="matrix" values="0 0 0 0 0 0 0 0 0 0 0 0 0 0 0 0 0 0 0.25 0"/>
<feBlend mode="normal" in2="shape" result="effect1_innerShadow"/>
</filter>
</defs>
</svg>
