<svg width="1594" height="1067" viewBox="0 0 1594 1067" fill="none" xmlns="http://www.w3.org/2000/svg">
<rect width="1594" height="1067" fill="black"/>
<rect width="1594" height="93" fill="#18A0FB"/>
<rect y="991" width="1594" height="76" fill="#18A0FB"/>
<ellipse cx="1524" cy="41.5" rx="46" ry="41.5" fill="white"/>
<line x1="1492.08" y1="20.5012" x2="1556.08" y2="22.5012" stroke="black" stroke-width="5"/>
<line x1="1494.04" y1="38.5003" x2="1556.04" y2="39.5003" stroke="black" stroke-width="5"/>
<line x1="1492" y1="56.5" x2="1556" y2="56.5" stroke="black" stroke-width="5"/>
<rect x="182.5" y="229.5" width="1229" height="551" fill="white" stroke="black" stroke-width="5"/>
<path d="M588.484 520.32H604.656V524H583.961V489.875H588.484V520.32ZM634.492 508.039C634.492 511.383 633.93 514.305 632.805 516.805C631.68 519.289 630.086 521.188 628.023 522.5C625.961 523.812 623.555 524.469 620.805 524.469C618.117 524.469 615.734 523.812 613.656 522.5C611.578 521.172 609.961 519.289 608.805 516.852C607.664 514.398 607.078 511.562 607.047 508.344V505.883C607.047 502.602 607.617 499.703 608.758 497.188C609.898 494.672 611.508 492.75 613.586 491.422C615.68 490.078 618.07 489.406 620.758 489.406C623.492 489.406 625.898 490.07 627.977 491.398C630.07 492.711 631.68 494.625 632.805 497.141C633.93 499.641 634.492 502.555 634.492 505.883V508.039ZM630.016 505.836C630.016 501.789 629.203 498.688 627.578 496.531C625.953 494.359 623.68 493.273 620.758 493.273C617.914 493.273 615.672 494.359 614.031 496.531C612.406 498.688 611.57 501.688 611.523 505.531V508.039C611.523 511.961 612.344 515.047 613.984 517.297C615.641 519.531 617.914 520.648 620.805 520.648C623.711 520.648 625.961 519.594 627.555 517.484C629.148 515.359 629.969 512.32 630.016 508.367V505.836ZM666.438 519.523C665.281 521.18 663.664 522.422 661.586 523.25C659.523 524.062 657.117 524.469 654.367 524.469C651.586 524.469 649.117 523.82 646.961 522.523C644.805 521.211 643.133 519.352 641.945 516.945C640.773 514.539 640.172 511.75 640.141 508.578V505.602C640.141 500.461 641.336 496.477 643.727 493.648C646.133 490.82 649.508 489.406 653.852 489.406C657.414 489.406 660.281 490.32 662.453 492.148C664.625 493.961 665.953 496.539 666.438 499.883H661.938C661.094 495.367 658.406 493.109 653.875 493.109C650.859 493.109 648.57 494.172 647.008 496.297C645.461 498.406 644.68 501.469 644.664 505.484V508.273C644.664 512.102 645.539 515.148 647.289 517.414C649.039 519.664 651.406 520.789 654.391 520.789C656.078 520.789 657.555 520.602 658.82 520.227C660.086 519.852 661.133 519.219 661.961 518.328V510.664H654.062V507.008H666.438V519.523ZM678.789 524H674.289V489.875H678.789V524ZM713.266 524H708.742L691.562 497.703V524H687.039V489.875H691.562L708.789 516.289V489.875H713.266V524Z" fill="black"/>
<rect x="944" y="287" width="404" height="102" fill="#C4C4C4"/>
<path d="M1113.44 338.17H1102.35V347.24H1115.23V350H1098.97V324.406H1115.05V327.184H1102.35V335.41H1113.44V338.17ZM1125.69 340.455H1117.11V337.801H1125.69V340.455ZM1131.93 330.98L1132.02 333.09C1133.41 331.449 1135.29 330.629 1137.66 330.629C1140.32 330.629 1142.13 331.648 1143.09 333.688C1143.72 332.773 1144.54 332.035 1145.55 331.473C1146.57 330.91 1147.77 330.629 1149.16 330.629C1153.33 330.629 1155.45 332.838 1155.52 337.256V350H1152.27V337.449C1152.27 336.09 1151.96 335.076 1151.34 334.408C1150.71 333.729 1149.67 333.389 1148.21 333.389C1147 333.389 1146 333.752 1145.2 334.479C1144.4 335.193 1143.94 336.16 1143.81 337.379V350H1140.54V337.537C1140.54 334.771 1139.19 333.389 1136.48 333.389C1134.35 333.389 1132.89 334.297 1132.11 336.113V350H1128.85V330.98H1131.93ZM1172.18 350C1172 349.625 1171.84 348.957 1171.73 347.996C1170.21 349.566 1168.41 350.352 1166.31 350.352C1164.44 350.352 1162.9 349.824 1161.69 348.77C1160.49 347.703 1159.9 346.355 1159.9 344.727C1159.9 342.746 1160.65 341.211 1162.15 340.121C1163.66 339.02 1165.78 338.469 1168.51 338.469H1171.67V336.975C1171.67 335.838 1171.33 334.936 1170.65 334.268C1169.97 333.588 1168.97 333.248 1167.65 333.248C1166.49 333.248 1165.52 333.541 1164.73 334.127C1163.95 334.713 1163.55 335.422 1163.55 336.254H1160.28C1160.28 335.305 1160.62 334.391 1161.29 333.512C1161.96 332.621 1162.88 331.918 1164.03 331.402C1165.19 330.887 1166.46 330.629 1167.84 330.629C1170.03 330.629 1171.75 331.18 1172.99 332.281C1174.23 333.371 1174.88 334.877 1174.93 336.799V345.553C1174.93 347.299 1175.15 348.688 1175.59 349.719V350H1172.18ZM1166.79 347.521C1167.81 347.521 1168.77 347.258 1169.69 346.73C1170.6 346.203 1171.26 345.518 1171.67 344.674V340.771H1169.12C1165.14 340.771 1163.15 341.938 1163.15 344.27C1163.15 345.289 1163.49 346.086 1164.17 346.66C1164.85 347.234 1165.72 347.521 1166.79 347.521ZM1183.56 350H1180.3V330.98H1183.56V350ZM1180.04 325.936C1180.04 325.408 1180.2 324.963 1180.52 324.6C1180.84 324.236 1181.32 324.055 1181.96 324.055C1182.59 324.055 1183.07 324.236 1183.4 324.6C1183.73 324.963 1183.89 325.408 1183.89 325.936C1183.89 326.463 1183.73 326.902 1183.4 327.254C1183.07 327.605 1182.59 327.781 1181.96 327.781C1181.32 327.781 1180.84 327.605 1180.52 327.254C1180.2 326.902 1180.04 326.463 1180.04 325.936ZM1192.31 350H1189.06V323H1192.31V350Z" fill="black"/>
<rect x="942" y="433" width="406" height="101" fill="#C4C4C4"/>
<path d="M1072.35 473.98V484H1068.97V458.406H1078.41C1081.21 458.406 1083.4 459.121 1084.98 460.551C1086.58 461.98 1087.38 463.873 1087.38 466.229C1087.38 468.713 1086.6 470.629 1085.04 471.977C1083.49 473.312 1081.27 473.98 1078.38 473.98H1072.35ZM1072.35 471.221H1078.41C1080.21 471.221 1081.6 470.799 1082.56 469.955C1083.52 469.1 1084 467.869 1084 466.264C1084 464.74 1083.52 463.521 1082.56 462.607C1081.6 461.693 1080.28 461.219 1078.6 461.184H1072.35V471.221ZM1102.7 484C1102.52 483.625 1102.36 482.957 1102.25 481.996C1100.73 483.566 1098.93 484.352 1096.83 484.352C1094.96 484.352 1093.42 483.824 1092.21 482.77C1091.01 481.703 1090.42 480.355 1090.42 478.727C1090.42 476.746 1091.17 475.211 1092.67 474.121C1094.18 473.02 1096.3 472.469 1099.03 472.469H1102.19V470.975C1102.19 469.838 1101.85 468.936 1101.17 468.268C1100.49 467.588 1099.49 467.248 1098.17 467.248C1097.01 467.248 1096.04 467.541 1095.25 468.127C1094.46 468.713 1094.07 469.422 1094.07 470.254H1090.8C1090.8 469.305 1091.14 468.391 1091.8 467.512C1092.48 466.621 1093.4 465.918 1094.55 465.402C1095.71 464.887 1096.98 464.629 1098.36 464.629C1100.55 464.629 1102.27 465.18 1103.51 466.281C1104.75 467.371 1105.4 468.877 1105.45 470.799V479.553C1105.45 481.299 1105.67 482.688 1106.11 483.719V484H1102.7ZM1097.31 481.521C1098.33 481.521 1099.29 481.258 1100.21 480.73C1101.12 480.203 1101.78 479.518 1102.19 478.674V474.771H1099.64C1095.66 474.771 1093.67 475.938 1093.67 478.27C1093.67 479.289 1094.01 480.086 1094.69 480.66C1095.37 481.234 1096.24 481.521 1097.31 481.521ZM1121.62 478.955C1121.62 478.076 1121.28 477.396 1120.62 476.916C1119.96 476.424 1118.8 476.002 1117.15 475.65C1115.51 475.299 1114.21 474.877 1113.23 474.385C1112.27 473.893 1111.56 473.307 1111.09 472.627C1110.63 471.947 1110.4 471.139 1110.4 470.201C1110.4 468.643 1111.06 467.324 1112.37 466.246C1113.7 465.168 1115.38 464.629 1117.43 464.629C1119.59 464.629 1121.34 465.186 1122.67 466.299C1124.02 467.412 1124.69 468.836 1124.69 470.57H1121.42C1121.42 469.68 1121.04 468.912 1120.28 468.268C1119.53 467.623 1118.58 467.301 1117.43 467.301C1116.25 467.301 1115.32 467.559 1114.66 468.074C1113.99 468.59 1113.65 469.264 1113.65 470.096C1113.65 470.881 1113.96 471.473 1114.59 471.871C1115.21 472.27 1116.33 472.65 1117.94 473.014C1119.57 473.377 1120.89 473.811 1121.9 474.314C1122.91 474.818 1123.65 475.428 1124.13 476.143C1124.62 476.846 1124.87 477.707 1124.87 478.727C1124.87 480.426 1124.19 481.791 1122.83 482.822C1121.47 483.842 1119.71 484.352 1117.54 484.352C1116.02 484.352 1114.67 484.082 1113.5 483.543C1112.32 483.004 1111.4 482.254 1110.74 481.293C1110.08 480.32 1109.75 479.271 1109.75 478.146H1113C1113.06 479.236 1113.5 480.104 1114.3 480.748C1115.12 481.381 1116.2 481.697 1117.54 481.697C1118.77 481.697 1119.75 481.451 1120.49 480.959C1121.24 480.455 1121.62 479.787 1121.62 478.955ZM1140.18 478.955C1140.18 478.076 1139.85 477.396 1139.18 476.916C1138.52 476.424 1137.37 476.002 1135.71 475.65C1134.07 475.299 1132.77 474.877 1131.79 474.385C1130.83 473.893 1130.12 473.307 1129.65 472.627C1129.19 471.947 1128.96 471.139 1128.96 470.201C1128.96 468.643 1129.62 467.324 1130.93 466.246C1132.26 465.168 1133.95 464.629 1136 464.629C1138.15 464.629 1139.9 465.186 1141.23 466.299C1142.58 467.412 1143.26 468.836 1143.26 470.57H1139.99C1139.99 469.68 1139.61 468.912 1138.84 468.268C1138.09 467.623 1137.14 467.301 1136 467.301C1134.81 467.301 1133.89 467.559 1133.22 468.074C1132.55 468.59 1132.22 469.264 1132.22 470.096C1132.22 470.881 1132.53 471.473 1133.15 471.871C1133.77 472.27 1134.89 472.65 1136.51 473.014C1138.13 473.377 1139.45 473.811 1140.46 474.314C1141.47 474.818 1142.21 475.428 1142.69 476.143C1143.19 476.846 1143.43 477.707 1143.43 478.727C1143.43 480.426 1142.75 481.791 1141.39 482.822C1140.03 483.842 1138.27 484.352 1136.1 484.352C1134.58 484.352 1133.23 484.082 1132.06 483.543C1130.89 483.004 1129.97 482.254 1129.3 481.293C1128.64 480.32 1128.31 479.271 1128.31 478.146H1131.57C1131.62 479.236 1132.06 480.104 1132.87 480.748C1133.69 481.381 1134.77 481.697 1136.1 481.697C1137.33 481.697 1138.32 481.451 1139.05 480.959C1139.8 480.455 1140.18 479.787 1140.18 478.955ZM1164.51 479.518L1168.16 464.98H1171.42L1165.88 484H1163.24L1158.62 469.586L1154.12 484H1151.48L1145.96 464.98H1149.2L1152.94 479.219L1157.37 464.98H1159.99L1164.51 479.518ZM1173.88 474.314C1173.88 472.451 1174.24 470.775 1174.97 469.287C1175.71 467.799 1176.72 466.65 1178.03 465.842C1179.34 465.033 1180.83 464.629 1182.51 464.629C1185.1 464.629 1187.19 465.525 1188.78 467.318C1190.39 469.111 1191.19 471.496 1191.19 474.473V474.701C1191.19 476.553 1190.83 478.217 1190.12 479.693C1189.42 481.158 1188.4 482.301 1187.08 483.121C1185.77 483.941 1184.25 484.352 1182.54 484.352C1179.96 484.352 1177.87 483.455 1176.27 481.662C1174.67 479.869 1173.88 477.496 1173.88 474.543V474.314ZM1177.15 474.701C1177.15 476.811 1177.63 478.504 1178.61 479.781C1179.59 481.059 1180.9 481.697 1182.54 481.697C1184.2 481.697 1185.51 481.053 1186.48 479.764C1187.45 478.463 1187.94 476.646 1187.94 474.314C1187.94 472.229 1187.44 470.541 1186.45 469.252C1185.46 467.951 1184.15 467.301 1182.51 467.301C1180.9 467.301 1179.61 467.939 1178.62 469.217C1177.64 470.494 1177.15 472.322 1177.15 474.701ZM1204.46 467.898C1203.97 467.816 1203.44 467.775 1202.86 467.775C1200.73 467.775 1199.28 468.684 1198.52 470.5V484H1195.27V464.98H1198.43L1198.49 467.178C1199.55 465.479 1201.06 464.629 1203.02 464.629C1203.65 464.629 1204.13 464.711 1204.46 464.875V467.898ZM1206.33 474.332C1206.33 471.414 1207.02 469.07 1208.4 467.301C1209.78 465.52 1211.59 464.629 1213.83 464.629C1216.06 464.629 1217.82 465.391 1219.12 466.914V457H1222.38V484H1219.39L1219.23 481.961C1217.93 483.555 1216.12 484.352 1213.8 484.352C1211.59 484.352 1209.79 483.449 1208.4 481.645C1207.02 479.84 1206.33 477.484 1206.33 474.578V474.332ZM1209.58 474.701C1209.58 476.857 1210.02 478.545 1210.91 479.764C1211.8 480.982 1213.04 481.592 1214.61 481.592C1216.67 481.592 1218.17 480.666 1219.12 478.814V470.078C1218.15 468.285 1216.66 467.389 1214.64 467.389C1213.05 467.389 1211.8 468.004 1210.91 469.234C1210.02 470.465 1209.58 472.287 1209.58 474.701Z" fill="black"/>
<rect x="938" y="578" width="410" height="102" fill="#C4C4C4"/>
<path d="M1072.35 635.98V646H1068.97V620.406H1078.41C1081.21 620.406 1083.4 621.121 1084.98 622.551C1086.58 623.98 1087.38 625.873 1087.38 628.229C1087.38 630.713 1086.6 632.629 1085.04 633.977C1083.49 635.312 1081.27 635.98 1078.38 635.98H1072.35ZM1072.35 633.221H1078.41C1080.21 633.221 1081.6 632.799 1082.56 631.955C1083.52 631.1 1084 629.869 1084 628.264C1084 626.74 1083.52 625.521 1082.56 624.607C1081.6 623.693 1080.28 623.219 1078.6 623.184H1072.35V633.221ZM1102.7 646C1102.52 645.625 1102.36 644.957 1102.25 643.996C1100.73 645.566 1098.93 646.352 1096.83 646.352C1094.96 646.352 1093.42 645.824 1092.21 644.77C1091.01 643.703 1090.42 642.355 1090.42 640.727C1090.42 638.746 1091.17 637.211 1092.67 636.121C1094.18 635.02 1096.3 634.469 1099.03 634.469H1102.19V632.975C1102.19 631.838 1101.85 630.936 1101.17 630.268C1100.49 629.588 1099.49 629.248 1098.17 629.248C1097.01 629.248 1096.04 629.541 1095.25 630.127C1094.46 630.713 1094.07 631.422 1094.07 632.254H1090.8C1090.8 631.305 1091.14 630.391 1091.8 629.512C1092.48 628.621 1093.4 627.918 1094.55 627.402C1095.71 626.887 1096.98 626.629 1098.36 626.629C1100.55 626.629 1102.27 627.18 1103.51 628.281C1104.75 629.371 1105.4 630.877 1105.45 632.799V641.553C1105.45 643.299 1105.67 644.688 1106.11 645.719V646H1102.7ZM1097.31 643.521C1098.33 643.521 1099.29 643.258 1100.21 642.73C1101.12 642.203 1101.78 641.518 1102.19 640.674V636.771H1099.64C1095.66 636.771 1093.67 637.938 1093.67 640.27C1093.67 641.289 1094.01 642.086 1094.69 642.66C1095.37 643.234 1096.24 643.521 1097.31 643.521ZM1121.62 640.955C1121.62 640.076 1121.28 639.396 1120.62 638.916C1119.96 638.424 1118.8 638.002 1117.15 637.65C1115.51 637.299 1114.21 636.877 1113.23 636.385C1112.27 635.893 1111.56 635.307 1111.09 634.627C1110.63 633.947 1110.4 633.139 1110.4 632.201C1110.4 630.643 1111.06 629.324 1112.37 628.246C1113.7 627.168 1115.38 626.629 1117.43 626.629C1119.59 626.629 1121.34 627.186 1122.67 628.299C1124.02 629.412 1124.69 630.836 1124.69 632.57H1121.42C1121.42 631.68 1121.04 630.912 1120.28 630.268C1119.53 629.623 1118.58 629.301 1117.43 629.301C1116.25 629.301 1115.32 629.559 1114.66 630.074C1113.99 630.59 1113.65 631.264 1113.65 632.096C1113.65 632.881 1113.96 633.473 1114.59 633.871C1115.21 634.27 1116.33 634.65 1117.94 635.014C1119.57 635.377 1120.89 635.811 1121.9 636.314C1122.91 636.818 1123.65 637.428 1124.13 638.143C1124.62 638.846 1124.87 639.707 1124.87 640.727C1124.87 642.426 1124.19 643.791 1122.83 644.822C1121.47 645.842 1119.71 646.352 1117.54 646.352C1116.02 646.352 1114.67 646.082 1113.5 645.543C1112.32 645.004 1111.4 644.254 1110.74 643.293C1110.08 642.32 1109.75 641.271 1109.75 640.146H1113C1113.06 641.236 1113.5 642.104 1114.3 642.748C1115.12 643.381 1116.2 643.697 1117.54 643.697C1118.77 643.697 1119.75 643.451 1120.49 642.959C1121.24 642.455 1121.62 641.787 1121.62 640.955ZM1140.18 640.955C1140.18 640.076 1139.85 639.396 1139.18 638.916C1138.52 638.424 1137.37 638.002 1135.71 637.65C1134.07 637.299 1132.77 636.877 1131.79 636.385C1130.83 635.893 1130.12 635.307 1129.65 634.627C1129.19 633.947 1128.96 633.139 1128.96 632.201C1128.96 630.643 1129.62 629.324 1130.93 628.246C1132.26 627.168 1133.95 626.629 1136 626.629C1138.15 626.629 1139.9 627.186 1141.23 628.299C1142.58 629.412 1143.26 630.836 1143.26 632.57H1139.99C1139.99 631.68 1139.61 630.912 1138.84 630.268C1138.09 629.623 1137.14 629.301 1136 629.301C1134.81 629.301 1133.89 629.559 1133.22 630.074C1132.55 630.59 1132.22 631.264 1132.22 632.096C1132.22 632.881 1132.53 633.473 1133.15 633.871C1133.77 634.27 1134.89 634.65 1136.51 635.014C1138.13 635.377 1139.45 635.811 1140.46 636.314C1141.47 636.818 1142.21 637.428 1142.69 638.143C1143.19 638.846 1143.43 639.707 1143.43 640.727C1143.43 642.426 1142.75 643.791 1141.39 644.822C1140.03 645.842 1138.27 646.352 1136.1 646.352C1134.58 646.352 1133.23 646.082 1132.06 645.543C1130.89 645.004 1129.97 644.254 1129.3 643.293C1128.64 642.32 1128.31 641.271 1128.31 640.146H1131.57C1131.62 641.236 1132.06 642.104 1132.87 642.748C1133.69 643.381 1134.77 643.697 1136.1 643.697C1137.33 643.697 1138.32 643.451 1139.05 642.959C1139.8 642.455 1140.18 641.787 1140.18 640.955ZM1164.51 641.518L1168.16 626.98H1171.42L1165.88 646H1163.24L1158.62 631.586L1154.12 646H1151.48L1145.96 626.98H1149.2L1152.94 641.219L1157.37 626.98H1159.99L1164.51 641.518ZM1173.88 636.314C1173.88 634.451 1174.24 632.775 1174.97 631.287C1175.71 629.799 1176.72 628.65 1178.03 627.842C1179.34 627.033 1180.83 626.629 1182.51 626.629C1185.1 626.629 1187.19 627.525 1188.78 629.318C1190.39 631.111 1191.19 633.496 1191.19 636.473V636.701C1191.19 638.553 1190.83 640.217 1190.12 641.693C1189.42 643.158 1188.4 644.301 1187.08 645.121C1185.77 645.941 1184.25 646.352 1182.54 646.352C1179.96 646.352 1177.87 645.455 1176.27 643.662C1174.67 641.869 1173.88 639.496 1173.88 636.543V636.314ZM1177.15 636.701C1177.15 638.811 1177.63 640.504 1178.61 641.781C1179.59 643.059 1180.9 643.697 1182.54 643.697C1184.2 643.697 1185.51 643.053 1186.48 641.764C1187.45 640.463 1187.94 638.646 1187.94 636.314C1187.94 634.229 1187.44 632.541 1186.45 631.252C1185.46 629.951 1184.15 629.301 1182.51 629.301C1180.9 629.301 1179.61 629.939 1178.62 631.217C1177.64 632.494 1177.15 634.322 1177.15 636.701ZM1204.46 629.898C1203.97 629.816 1203.44 629.775 1202.86 629.775C1200.73 629.775 1199.28 630.684 1198.52 632.5V646H1195.27V626.98H1198.43L1198.49 629.178C1199.55 627.479 1201.06 626.629 1203.02 626.629C1203.65 626.629 1204.13 626.711 1204.46 626.875V629.898ZM1206.33 636.332C1206.33 633.414 1207.02 631.07 1208.4 629.301C1209.78 627.52 1211.59 626.629 1213.83 626.629C1216.06 626.629 1217.82 627.391 1219.12 628.914V619H1222.38V646H1219.39L1219.23 643.961C1217.93 645.555 1216.12 646.352 1213.8 646.352C1211.59 646.352 1209.79 645.449 1208.4 643.645C1207.02 641.84 1206.33 639.484 1206.33 636.578V636.332ZM1209.58 636.701C1209.58 638.857 1210.02 640.545 1210.91 641.764C1211.8 642.982 1213.04 643.592 1214.61 643.592C1216.67 643.592 1218.17 642.666 1219.12 640.814V632.078C1218.15 630.285 1216.66 629.389 1214.64 629.389C1213.05 629.389 1211.8 630.004 1210.91 631.234C1210.02 632.465 1209.58 634.287 1209.58 636.701Z" fill="black"/>
<path d="M797 471.5C797 431.261 784.279 391.925 760.445 358.464C736.611 325.004 702.734 298.92 663.096 283.512L580 471.5H797Z" fill="#27A0C7"/>
<path d="M665 534C665 578.618 649.591 622.018 621.112 657.612C592.633 693.206 552.639 719.051 507.201 731.224C461.762 743.396 413.361 741.232 369.343 725.059C325.325 708.886 288.094 679.587 263.302 641.611C238.509 603.634 227.509 559.053 231.97 514.635C236.432 470.216 256.112 428.385 288.023 395.492C319.934 362.598 362.333 340.438 408.785 332.375C455.238 324.312 503.207 330.786 545.41 350.815L448 534H665Z" fill="#27A0C7"/>
</svg>
