<svg width="1515" height="1047" viewBox="0 0 1515 1047" fill="none" xmlns="http://www.w3.org/2000/svg">
<g clip-path="url(#clip0)">
<rect width="1515" height="1047" fill="black"/>
<rect y="-23" width="1515" height="114" fill="#18A0FB"/>
<rect y="979" width="1515" height="68" fill="#18A0FB"/>
<ellipse cx="1445" cy="40.5" rx="50" ry="40.5" fill="white"/>
<line x1="1413" y1="20.5" x2="1477" y2="20.5" stroke="black" stroke-width="5"/>
<line x1="1413" y1="38.5" x2="1479" y2="38.5" stroke="black" stroke-width="5"/>
<line x1="1413" y1="56.5" x2="1481" y2="56.5" stroke="black" stroke-width="5"/>
<g filter="url(#filter0_i)">
<rect x="184" y="268" width="1148" height="464" fill="white"/>
</g>
<rect x="186.5" y="270.5" width="1143" height="459" stroke="black" stroke-width="5"/>
<rect x="235" y="295" width="370" height="76" fill="#C4C4C4"/>
<path d="M355.086 335.697H344.346V347H340.971V321.406H356.826V324.184H344.346V332.938H355.086V335.697ZM363.893 347H360.641V327.98H363.893V347ZM360.377 322.936C360.377 322.408 360.535 321.963 360.852 321.6C361.18 321.236 361.66 321.055 362.293 321.055C362.926 321.055 363.406 321.236 363.734 321.6C364.062 321.963 364.227 322.408 364.227 322.936C364.227 323.463 364.062 323.902 363.734 324.254C363.406 324.605 362.926 324.781 362.293 324.781C361.66 324.781 361.18 324.605 360.852 324.254C360.535 323.902 360.377 323.463 360.377 322.936ZM378.307 330.898C377.814 330.816 377.281 330.775 376.707 330.775C374.574 330.775 373.127 331.684 372.365 333.5V347H369.113V327.98H372.277L372.33 330.178C373.396 328.479 374.908 327.629 376.865 327.629C377.498 327.629 377.979 327.711 378.307 327.875V330.898ZM392.387 341.955C392.387 341.076 392.053 340.396 391.385 339.916C390.729 339.424 389.574 339.002 387.922 338.65C386.281 338.299 384.975 337.877 384.002 337.385C383.041 336.893 382.326 336.307 381.857 335.627C381.4 334.947 381.172 334.139 381.172 333.201C381.172 331.643 381.828 330.324 383.141 329.246C384.465 328.168 386.152 327.629 388.203 327.629C390.359 327.629 392.105 328.186 393.441 329.299C394.789 330.412 395.463 331.836 395.463 333.57H392.193C392.193 332.68 391.812 331.912 391.051 331.268C390.301 330.623 389.352 330.301 388.203 330.301C387.02 330.301 386.094 330.559 385.426 331.074C384.758 331.59 384.424 332.264 384.424 333.096C384.424 333.881 384.734 334.473 385.355 334.871C385.977 335.27 387.096 335.65 388.713 336.014C390.342 336.377 391.66 336.811 392.668 337.314C393.676 337.818 394.42 338.428 394.9 339.143C395.393 339.846 395.639 340.707 395.639 341.727C395.639 343.426 394.959 344.791 393.6 345.822C392.24 346.842 390.477 347.352 388.309 347.352C386.785 347.352 385.438 347.082 384.266 346.543C383.094 346.004 382.174 345.254 381.506 344.293C380.85 343.32 380.521 342.271 380.521 341.146H383.773C383.832 342.236 384.266 343.104 385.074 343.748C385.895 344.381 386.973 344.697 388.309 344.697C389.539 344.697 390.523 344.451 391.262 343.959C392.012 343.455 392.387 342.787 392.387 341.955ZM404.287 323.375V327.98H407.838V330.494H404.287V342.289C404.287 343.051 404.445 343.625 404.762 344.012C405.078 344.387 405.617 344.574 406.379 344.574C406.754 344.574 407.27 344.504 407.926 344.363V347C407.07 347.234 406.238 347.352 405.43 347.352C403.977 347.352 402.881 346.912 402.143 346.033C401.404 345.154 401.035 343.906 401.035 342.289V330.494H397.572V327.98H401.035V323.375H404.287ZM431.832 347H428.439L415.555 327.277V347H412.162V321.406H415.555L428.475 341.217V321.406H431.832V347ZM449.059 347C448.871 346.625 448.719 345.957 448.602 344.996C447.09 346.566 445.285 347.352 443.188 347.352C441.312 347.352 439.771 346.824 438.564 345.77C437.369 344.703 436.771 343.355 436.771 341.727C436.771 339.746 437.521 338.211 439.021 337.121C440.533 336.02 442.654 335.469 445.385 335.469H448.549V333.975C448.549 332.838 448.209 331.936 447.529 331.268C446.85 330.588 445.848 330.248 444.523 330.248C443.363 330.248 442.391 330.541 441.605 331.127C440.82 331.713 440.428 332.422 440.428 333.254H437.158C437.158 332.305 437.492 331.391 438.16 330.512C438.84 329.621 439.754 328.918 440.902 328.402C442.062 327.887 443.334 327.629 444.717 327.629C446.908 327.629 448.625 328.18 449.867 329.281C451.109 330.371 451.754 331.877 451.801 333.799V342.553C451.801 344.299 452.023 345.688 452.469 346.719V347H449.059ZM443.662 344.521C444.682 344.521 445.648 344.258 446.562 343.73C447.477 343.203 448.139 342.518 448.549 341.674V337.771H446C442.016 337.771 440.023 338.938 440.023 341.27C440.023 342.289 440.363 343.086 441.043 343.66C441.723 344.234 442.596 344.521 443.662 344.521ZM459.957 327.98L460.045 330.09C461.439 328.449 463.32 327.629 465.688 327.629C468.348 327.629 470.158 328.648 471.119 330.688C471.752 329.773 472.572 329.035 473.58 328.473C474.6 327.91 475.801 327.629 477.184 327.629C481.355 327.629 483.477 329.838 483.547 334.256V347H480.295V334.449C480.295 333.09 479.984 332.076 479.363 331.408C478.742 330.729 477.699 330.389 476.234 330.389C475.027 330.389 474.025 330.752 473.229 331.479C472.432 332.193 471.969 333.16 471.84 334.379V347H468.57V334.537C468.57 331.771 467.217 330.389 464.51 330.389C462.377 330.389 460.918 331.297 460.133 333.113V347H456.881V327.98H459.957ZM496.361 347.352C493.783 347.352 491.686 346.508 490.068 344.82C488.451 343.121 487.643 340.854 487.643 338.018V337.42C487.643 335.533 488 333.852 488.715 332.375C489.441 330.887 490.449 329.727 491.738 328.895C493.039 328.051 494.445 327.629 495.957 327.629C498.43 327.629 500.352 328.443 501.723 330.072C503.094 331.701 503.779 334.033 503.779 337.068V338.422H490.895C490.941 340.297 491.486 341.814 492.529 342.975C493.584 344.123 494.92 344.697 496.537 344.697C497.686 344.697 498.658 344.463 499.455 343.994C500.252 343.525 500.949 342.904 501.547 342.131L503.533 343.678C501.939 346.127 499.549 347.352 496.361 347.352ZM495.957 330.301C494.645 330.301 493.543 330.781 492.652 331.742C491.762 332.691 491.211 334.027 491 335.75H500.527V335.504C500.434 333.852 499.988 332.574 499.191 331.672C498.395 330.758 497.316 330.301 495.957 330.301Z" fill="black"/>
<rect x="237" y="395" width="368" height="82" fill="#C4C4C4"/>
<path d="M343.363 437.24H355.492V440H339.971V414.406H343.363V437.24ZM370.574 440C370.387 439.625 370.234 438.957 370.117 437.996C368.605 439.566 366.801 440.352 364.703 440.352C362.828 440.352 361.287 439.824 360.08 438.77C358.885 437.703 358.287 436.355 358.287 434.727C358.287 432.746 359.037 431.211 360.537 430.121C362.049 429.02 364.17 428.469 366.9 428.469H370.064V426.975C370.064 425.838 369.725 424.936 369.045 424.268C368.365 423.588 367.363 423.248 366.039 423.248C364.879 423.248 363.906 423.541 363.121 424.127C362.336 424.713 361.943 425.422 361.943 426.254H358.674C358.674 425.305 359.008 424.391 359.676 423.512C360.355 422.621 361.27 421.918 362.418 421.402C363.578 420.887 364.85 420.629 366.232 420.629C368.424 420.629 370.141 421.18 371.383 422.281C372.625 423.371 373.27 424.877 373.316 426.799V435.553C373.316 437.299 373.539 438.688 373.984 439.719V440H370.574ZM365.178 437.521C366.197 437.521 367.164 437.258 368.078 436.73C368.992 436.203 369.654 435.518 370.064 434.674V430.771H367.516C363.531 430.771 361.539 431.938 361.539 434.27C361.539 435.289 361.879 436.086 362.559 436.66C363.238 437.234 364.111 437.521 365.178 437.521ZM389.488 434.955C389.488 434.076 389.154 433.396 388.486 432.916C387.83 432.424 386.676 432.002 385.023 431.65C383.383 431.299 382.076 430.877 381.104 430.385C380.143 429.893 379.428 429.307 378.959 428.627C378.502 427.947 378.273 427.139 378.273 426.201C378.273 424.643 378.93 423.324 380.242 422.246C381.566 421.168 383.254 420.629 385.305 420.629C387.461 420.629 389.207 421.186 390.543 422.299C391.891 423.412 392.564 424.836 392.564 426.57H389.295C389.295 425.68 388.914 424.912 388.152 424.268C387.402 423.623 386.453 423.301 385.305 423.301C384.121 423.301 383.195 423.559 382.527 424.074C381.859 424.59 381.525 425.264 381.525 426.096C381.525 426.881 381.836 427.473 382.457 427.871C383.078 428.27 384.197 428.65 385.814 429.014C387.443 429.377 388.762 429.811 389.77 430.314C390.777 430.818 391.521 431.428 392.002 432.143C392.494 432.846 392.74 433.707 392.74 434.727C392.74 436.426 392.061 437.791 390.701 438.822C389.342 439.842 387.578 440.352 385.41 440.352C383.887 440.352 382.539 440.082 381.367 439.543C380.195 439.004 379.275 438.254 378.607 437.293C377.951 436.32 377.623 435.271 377.623 434.146H380.875C380.934 435.236 381.367 436.104 382.176 436.748C382.996 437.381 384.074 437.697 385.41 437.697C386.641 437.697 387.625 437.451 388.363 436.959C389.113 436.455 389.488 435.787 389.488 434.955ZM401.389 416.375V420.98H404.939V423.494H401.389V435.289C401.389 436.051 401.547 436.625 401.863 437.012C402.18 437.387 402.719 437.574 403.48 437.574C403.855 437.574 404.371 437.504 405.027 437.363V440C404.172 440.234 403.34 440.352 402.531 440.352C401.078 440.352 399.982 439.912 399.244 439.033C398.506 438.154 398.137 436.906 398.137 435.289V423.494H394.674V420.98H398.137V416.375H401.389ZM428.934 440H425.541L412.656 420.277V440H409.264V414.406H412.656L425.576 434.217V414.406H428.934V440ZM446.16 440C445.973 439.625 445.82 438.957 445.703 437.996C444.191 439.566 442.387 440.352 440.289 440.352C438.414 440.352 436.873 439.824 435.666 438.77C434.471 437.703 433.873 436.355 433.873 434.727C433.873 432.746 434.623 431.211 436.123 430.121C437.635 429.02 439.756 428.469 442.486 428.469H445.65V426.975C445.65 425.838 445.311 424.936 444.631 424.268C443.951 423.588 442.949 423.248 441.625 423.248C440.465 423.248 439.492 423.541 438.707 424.127C437.922 424.713 437.529 425.422 437.529 426.254H434.26C434.26 425.305 434.594 424.391 435.262 423.512C435.941 422.621 436.855 421.918 438.004 421.402C439.164 420.887 440.436 420.629 441.818 420.629C444.01 420.629 445.727 421.18 446.969 422.281C448.211 423.371 448.855 424.877 448.902 426.799V435.553C448.902 437.299 449.125 438.688 449.57 439.719V440H446.16ZM440.764 437.521C441.783 437.521 442.75 437.258 443.664 436.73C444.578 436.203 445.24 435.518 445.65 434.674V430.771H443.102C439.117 430.771 437.125 431.938 437.125 434.27C437.125 435.289 437.465 436.086 438.145 436.66C438.824 437.234 439.697 437.521 440.764 437.521ZM457.059 420.98L457.146 423.09C458.541 421.449 460.422 420.629 462.789 420.629C465.449 420.629 467.26 421.648 468.221 423.688C468.854 422.773 469.674 422.035 470.682 421.473C471.701 420.91 472.902 420.629 474.285 420.629C478.457 420.629 480.578 422.838 480.648 427.256V440H477.396V427.449C477.396 426.09 477.086 425.076 476.465 424.408C475.844 423.729 474.801 423.389 473.336 423.389C472.129 423.389 471.127 423.752 470.33 424.479C469.533 425.193 469.07 426.16 468.941 427.379V440H465.672V427.537C465.672 424.771 464.318 423.389 461.611 423.389C459.479 423.389 458.02 424.297 457.234 426.113V440H453.982V420.98H457.059ZM493.463 440.352C490.885 440.352 488.787 439.508 487.17 437.82C485.553 436.121 484.744 433.854 484.744 431.018V430.42C484.744 428.533 485.102 426.852 485.816 425.375C486.543 423.887 487.551 422.727 488.84 421.895C490.141 421.051 491.547 420.629 493.059 420.629C495.531 420.629 497.453 421.443 498.824 423.072C500.195 424.701 500.881 427.033 500.881 430.068V431.422H487.996C488.043 433.297 488.588 434.814 489.631 435.975C490.686 437.123 492.021 437.697 493.639 437.697C494.787 437.697 495.76 437.463 496.557 436.994C497.354 436.525 498.051 435.904 498.648 435.131L500.635 436.678C499.041 439.127 496.65 440.352 493.463 440.352ZM493.059 423.301C491.746 423.301 490.645 423.781 489.754 424.742C488.863 425.691 488.312 427.027 488.102 428.75H497.629V428.504C497.535 426.852 497.09 425.574 496.293 424.672C495.496 423.758 494.418 423.301 493.059 423.301Z" fill="black"/>
<path d="M237 692H607V610H237V692Z" fill="#C4C4C4"/>
<path d="M340.971 673V647.406H349.338C352.115 647.406 354.201 647.98 355.596 649.129C357.002 650.277 357.705 651.977 357.705 654.227C357.705 655.422 357.365 656.482 356.686 657.408C356.006 658.322 355.08 659.031 353.908 659.535C355.291 659.922 356.381 660.66 357.178 661.75C357.986 662.828 358.391 664.117 358.391 665.617C358.391 667.914 357.646 669.719 356.158 671.031C354.67 672.344 352.566 673 349.848 673H340.971ZM344.346 661.029V670.24H349.918C351.488 670.24 352.725 669.836 353.627 669.027C354.541 668.207 354.998 667.082 354.998 665.652C354.998 662.57 353.322 661.029 349.971 661.029H344.346ZM344.346 658.322H349.443C350.92 658.322 352.098 657.953 352.977 657.215C353.867 656.477 354.312 655.475 354.312 654.209C354.312 652.803 353.902 651.783 353.082 651.15C352.262 650.506 351.014 650.184 349.338 650.184H344.346V658.322ZM366.424 673H363.172V653.98H366.424V673ZM362.908 648.936C362.908 648.408 363.066 647.963 363.383 647.6C363.711 647.236 364.191 647.055 364.824 647.055C365.457 647.055 365.938 647.236 366.266 647.6C366.594 647.963 366.758 648.408 366.758 648.936C366.758 649.463 366.594 649.902 366.266 650.254C365.938 650.605 365.457 650.781 364.824 650.781C364.191 650.781 363.711 650.605 363.383 650.254C363.066 649.902 362.908 649.463 362.908 648.936ZM380.838 656.898C380.346 656.816 379.812 656.775 379.238 656.775C377.105 656.775 375.658 657.684 374.896 659.5V673H371.645V653.98H374.809L374.861 656.178C375.928 654.479 377.439 653.629 379.396 653.629C380.029 653.629 380.51 653.711 380.838 653.875V656.898ZM389.135 649.375V653.98H392.686V656.494H389.135V668.289C389.135 669.051 389.293 669.625 389.609 670.012C389.926 670.387 390.465 670.574 391.227 670.574C391.602 670.574 392.117 670.504 392.773 670.363V673C391.918 673.234 391.086 673.352 390.277 673.352C388.824 673.352 387.729 672.912 386.99 672.033C386.252 671.154 385.883 669.906 385.883 668.289V656.494H382.42V653.98H385.883V649.375H389.135ZM399.752 656.283C401.193 654.514 403.068 653.629 405.377 653.629C409.396 653.629 411.424 655.896 411.459 660.432V673H408.207V660.414C408.195 659.043 407.879 658.029 407.258 657.373C406.648 656.717 405.693 656.389 404.393 656.389C403.338 656.389 402.412 656.67 401.615 657.232C400.818 657.795 400.197 658.533 399.752 659.447V673H396.5V646H399.752V656.283ZM416.838 673V647.406H424.062C426.289 647.406 428.258 647.898 429.969 648.883C431.68 649.867 432.998 651.268 433.924 653.084C434.861 654.9 435.336 656.986 435.348 659.342V660.977C435.348 663.391 434.879 665.506 433.941 667.322C433.016 669.139 431.686 670.533 429.951 671.506C428.229 672.479 426.219 672.977 423.922 673H416.838ZM420.213 650.184V670.24H423.764C426.365 670.24 428.387 669.432 429.828 667.814C431.281 666.197 432.008 663.895 432.008 660.906V659.412C432.008 656.506 431.322 654.25 429.951 652.645C428.592 651.027 426.658 650.207 424.15 650.184H420.213ZM451.695 673C451.508 672.625 451.355 671.957 451.238 670.996C449.727 672.566 447.922 673.352 445.824 673.352C443.949 673.352 442.408 672.824 441.201 671.77C440.006 670.703 439.408 669.355 439.408 667.727C439.408 665.746 440.158 664.211 441.658 663.121C443.17 662.02 445.291 661.469 448.021 661.469H451.186V659.975C451.186 658.838 450.846 657.936 450.166 657.268C449.486 656.588 448.484 656.248 447.16 656.248C446 656.248 445.027 656.541 444.242 657.127C443.457 657.713 443.064 658.422 443.064 659.254H439.795C439.795 658.305 440.129 657.391 440.797 656.512C441.477 655.621 442.391 654.918 443.539 654.402C444.699 653.887 445.971 653.629 447.354 653.629C449.545 653.629 451.262 654.18 452.504 655.281C453.746 656.371 454.391 657.877 454.438 659.799V668.553C454.438 670.299 454.66 671.688 455.105 672.719V673H451.695ZM446.299 670.521C447.318 670.521 448.285 670.258 449.199 669.73C450.113 669.203 450.775 668.518 451.186 667.674V663.771H448.637C444.652 663.771 442.66 664.938 442.66 667.27C442.66 668.289 443 669.086 443.68 669.66C444.359 670.234 445.232 670.521 446.299 670.521ZM463.947 649.375V653.98H467.498V656.494H463.947V668.289C463.947 669.051 464.105 669.625 464.422 670.012C464.738 670.387 465.277 670.574 466.039 670.574C466.414 670.574 466.93 670.504 467.586 670.363V673C466.73 673.234 465.898 673.352 465.09 673.352C463.637 673.352 462.541 672.912 461.803 672.033C461.064 671.154 460.695 669.906 460.695 668.289V656.494H457.232V653.98H460.695V649.375H463.947ZM479.205 673.352C476.627 673.352 474.529 672.508 472.912 670.82C471.295 669.121 470.486 666.854 470.486 664.018V663.42C470.486 661.533 470.844 659.852 471.559 658.375C472.285 656.887 473.293 655.727 474.582 654.895C475.883 654.051 477.289 653.629 478.801 653.629C481.273 653.629 483.195 654.443 484.566 656.072C485.938 657.701 486.623 660.033 486.623 663.068V664.422H473.738C473.785 666.297 474.33 667.814 475.373 668.975C476.428 670.123 477.764 670.697 479.381 670.697C480.529 670.697 481.502 670.463 482.299 669.994C483.096 669.525 483.793 668.904 484.391 668.131L486.377 669.678C484.783 672.127 482.393 673.352 479.205 673.352ZM478.801 656.301C477.488 656.301 476.387 656.781 475.496 657.742C474.605 658.691 474.055 660.027 473.844 661.75H483.371V661.504C483.277 659.852 482.832 658.574 482.035 657.672C481.238 656.758 480.16 656.301 478.801 656.301Z" fill="black"/>
<rect x="237" y="500" width="366" height="76" fill="#C4C4C4"/>
<path d="M355.438 538.17H344.346V547.24H357.23V550H340.971V524.406H357.055V527.184H344.346V535.41H355.438V538.17ZM367.689 540.455H359.111V537.801H367.689V540.455ZM373.93 530.98L374.018 533.09C375.412 531.449 377.293 530.629 379.66 530.629C382.32 530.629 384.131 531.648 385.092 533.688C385.725 532.773 386.545 532.035 387.553 531.473C388.572 530.91 389.773 530.629 391.156 530.629C395.328 530.629 397.449 532.838 397.52 537.256V550H394.268V537.449C394.268 536.09 393.957 535.076 393.336 534.408C392.715 533.729 391.672 533.389 390.207 533.389C389 533.389 387.998 533.752 387.201 534.479C386.404 535.193 385.941 536.16 385.812 537.379V550H382.543V537.537C382.543 534.771 381.189 533.389 378.482 533.389C376.35 533.389 374.891 534.297 374.105 536.113V550H370.854V530.98H373.93ZM414.184 550C413.996 549.625 413.844 548.957 413.727 547.996C412.215 549.566 410.41 550.352 408.312 550.352C406.438 550.352 404.896 549.824 403.689 548.77C402.494 547.703 401.896 546.355 401.896 544.727C401.896 542.746 402.646 541.211 404.146 540.121C405.658 539.02 407.779 538.469 410.51 538.469H413.674V536.975C413.674 535.838 413.334 534.936 412.654 534.268C411.975 533.588 410.973 533.248 409.648 533.248C408.488 533.248 407.516 533.541 406.73 534.127C405.945 534.713 405.553 535.422 405.553 536.254H402.283C402.283 535.305 402.617 534.391 403.285 533.512C403.965 532.621 404.879 531.918 406.027 531.402C407.188 530.887 408.459 530.629 409.842 530.629C412.033 530.629 413.75 531.18 414.992 532.281C416.234 533.371 416.879 534.877 416.926 536.799V545.553C416.926 547.299 417.148 548.688 417.594 549.719V550H414.184ZM408.787 547.521C409.807 547.521 410.773 547.258 411.688 546.73C412.602 546.203 413.264 545.518 413.674 544.674V540.771H411.125C407.141 540.771 405.148 541.938 405.148 544.27C405.148 545.289 405.488 546.086 406.168 546.66C406.848 547.234 407.721 547.521 408.787 547.521ZM425.557 550H422.305V530.98H425.557V550ZM422.041 525.936C422.041 525.408 422.199 524.963 422.516 524.6C422.844 524.236 423.324 524.055 423.957 524.055C424.59 524.055 425.07 524.236 425.398 524.6C425.727 524.963 425.891 525.408 425.891 525.936C425.891 526.463 425.727 526.902 425.398 527.254C425.07 527.605 424.59 527.781 423.957 527.781C423.324 527.781 422.844 527.605 422.516 527.254C422.199 526.902 422.041 526.463 422.041 525.936ZM434.311 550H431.059V523H434.311V550Z" fill="black"/>
<path d="M849.043 596.539C870.698 631.217 902.527 658.158 940.065 673.585C977.604 689.011 1018.97 692.147 1058.36 682.554C1097.74 672.961 1133.18 651.12 1159.69 620.094C1186.2 589.068 1202.46 550.414 1206.18 509.556C1209.9 468.697 1200.9 427.683 1180.44 392.267C1159.99 356.851 1129.1 328.81 1092.11 312.079C1055.12 295.347 1013.89 290.764 974.193 298.971C934.502 307.179 898.343 327.767 870.789 357.845L1013 491.5L849.043 596.539Z" fill="#27A0C7"/>
</g>
<defs>
<filter id="filter0_i" x="184" y="268" width="1148" height="468" filterUnits="userSpaceOnUse" color-interpolation-filters="sRGB">
<feFlood flood-opacity="0" result="BackgroundImageFix"/>
<feBlend mode="normal" in="SourceGraphic" in2="BackgroundImageFix" result="shape"/>
<feColorMatrix in="SourceAlpha" type="matrix" values="0 0 0 0 0 0 0 0 0 0 0 0 0 0 0 0 0 0 127 0" result="hardAlpha"/>
<feOffset dy="4"/>
<feGaussianBlur stdDeviation="2"/>
<feComposite in2="hardAlpha" operator="arithmetic" k2="-1" k3="1"/>
<feColorMatrix type="matrix" values="0 0 0 0 0 0 0 0 0 0 0 0 0 0 0 0 0 0 0.25 0"/>
<feBlend mode="normal" in2="shape" result="effect1_innerShadow"/>
</filter>
<clipPath id="clip0">
<rect width="1515" height="1047" fill="white"/>
</clipPath>
</defs>
</svg>
